<?xml version="1.0" encoding="UTF-8" standalone="no"?>
<svg
        xmlns:dc="http://purl.org/dc/elements/1.1/"
        xmlns:cc="http://creativecommons.org/ns#"
        xmlns:rdf="http://www.w3.org/1999/02/22-rdf-syntax-ns#"
        xmlns:svg="http://www.w3.org/2000/svg"
        xmlns="http://www.w3.org/2000/svg"
        xmlns:sodipodi="http://sodipodi.sourceforge.net/DTD/sodipodi-0.dtd"
        xmlns:inkscape="http://www.inkscape.org/namespaces/inkscape"
        inkscape:export-ydpi="12.056569"
        inkscape:export-xdpi="12.056569"
        inkscape:export-filename="/home/anael/Téléchargements/variedade-de-chapeus-de-chef/favicon.png"
        inkscape:version="1.0 (4035a4fb49, 2020-05-01)"
        sodipodi:docname="toque.svg"
        viewBox="0 0 380.3249 380.3484"
        height="380.34842"
        width="380.32492"
        xml:space="preserve"
        id="svg2"
        version="1.1"><metadata
     id="metadata8"><rdf:RDF><cc:Work
         rdf:about=""><dc:format>image/svg+xml</dc:format><dc:type
        rdf:resource="http://purl.org/dc/dcmitype/StillImage"/><dc:title></dc:title></cc:Work></rdf:RDF></metadata>
    <defs
            id="defs6"><clipPath
       id="clipPath20"
       clipPathUnits="userSpaceOnUse"><path
         id="path18"
         d="M 0,800 H 800 V 0 H 0 Z" /></clipPath>
        <clipPath
                id="clipPath160"
                clipPathUnits="userSpaceOnUse"><path
         id="path158"
         d="M 0,800 H 800 V 0 H 0 Z" /></clipPath>
        <clipPath
                id="clipPath168"
                clipPathUnits="userSpaceOnUse"><path
         id="path166"
         d="M 107.321,606.457 H 370.745 V 372.188 H 107.321 Z" /></clipPath>
        <clipPath
                id="clipPath264"
                clipPathUnits="userSpaceOnUse"><path
         id="path262"
         d="M 471.162,615.707 H 682.991 V 365.924 H 471.162 Z" /></clipPath>
        <clipPath
                id="clipPath356"
                clipPathUnits="userSpaceOnUse"><path
         id="path354"
         d="M 422.146,294.912 H 683.132 V 66.8379 H 422.146 Z" /></clipPath>
        <clipPath
                id="clipPath432"
                clipPathUnits="userSpaceOnUse"><path
         id="path430"
         d="M 162.453,299.055 H 313.084 V 66.0537 H 162.453 Z" /></clipPath></defs>
    <sodipodi:namedview
            lock-margins="false"
            fit-margin-bottom="25"
            fit-margin-right="10"
            fit-margin-left="10"
            fit-margin-top="25"
            inkscape:current-layer="g156"
            inkscape:window-maximized="1"
            inkscape:window-y="0"
            inkscape:window-x="1920"
            inkscape:cy="217.61768"
            inkscape:cx="172.16692"
            inkscape:zoom="1.274412"
            showgrid="false"
            id="namedview4"
            inkscape:window-height="1023"
            inkscape:window-width="1920"
            inkscape:pageshadow="2"
            inkscape:pageopacity="0"
            guidetolerance="10"
            gridtolerance="10"
            objecttolerance="10"
            borderopacity="1"
            bordercolor="#666666"
            pagecolor="#ffffff"/>
    <g
            transform="matrix(1.3333333,0,0,-1.3333333,-133.09466,851.59927)"
            inkscape:label="19738-NSAP0K"
            inkscape:groupmode="layer"
            id="g10"><g
       id="g154"><g
         clip-path="url(#clipPath160)"
         id="g156"><g
           id="g162"><g
             id="g164" /><g
            id="g176"><g
               id="g174"
               opacity="0.300003"
               clip-path="url(#clipPath168)"><g
                 id="g172"
                 transform="translate(359.7026,543.1084)"><path
                   id="path170"
                   style="fill:#6d6e70;fill-opacity:1;fill-rule:nonzero;stroke:none"
                   d="m 0,0 c -35.007,47.626 -83.042,-2.036 -83.042,-2.036 0,0 33.059,48.356 -44.777,63.502 -75.307,14.654 -69.201,-61.059 -69.201,-61.059 -24.424,19.946 -44.777,-15.062 -44.777,-15.062 -42.471,-74.9 56.582,-83.042 56.582,-83.042 l -4.885,-62.687 c 0,0 23.85,8.531 52.918,-5.698 30.149,-14.758 74.087,8.954 74.087,8.954 0,0 2.849,20.354 0.407,39.078 -2.198,16.849 -3.735,31.383 -4.021,34.128 0.506,-0.209 0.764,-0.342 0.764,-0.342 C -56.989,-82.228 43.976,-59.83 0,0" /></g></g></g></g><g
            transform="translate(179.3716,457.3525)"
            id="g178"><path
             id="path180"
             style="fill:#ffffff;fill-opacity:1;fill-rule:nonzero;stroke:none"
             d="m 0,0 c 0,0 -96.538,10.147 -56.582,83.042 0,0 17.044,29.105 44.777,15.061 0,0 -6.778,71.691 69.201,61.06 60.856,-8.516 44.777,-63.502 44.777,-63.502 0,0 42.12,45.073 83.042,2.035 43.314,-45.553 -56.99,-82.227 -65.945,-84.262 0,0 -15.875,8.141 -47.016,-0.611 C 9.242,-4.886 0,0 0,0" /></g><g
            transform="translate(179.3716,457.3525)"
            id="g182"><path
             id="path184"
             style="fill:#6d6e70;fill-opacity:1;fill-rule:nonzero;stroke:none"
             d="m 0,0 c 1.204,-0.402 2.488,-0.45 3.746,-0.51 1.264,-0.021 2.529,-0.016 3.792,0.072 2.525,0.127 5.042,0.415 7.547,0.756 1.256,0.15 2.505,0.354 3.753,0.561 1.247,0.215 2.5,0.382 3.741,0.635 2.485,0.477 4.979,0.903 7.45,1.452 2.478,0.514 4.952,1.038 7.414,1.631 2.465,0.573 4.932,1.133 7.382,1.772 2.452,0.629 4.914,1.217 7.356,1.88 l 7.325,1.98 c 2.442,0.657 4.874,1.385 7.311,2.075 l 7.322,2.088 c 4.925,1.358 9.946,2.42 15.037,3.077 5.089,0.669 10.254,0.9 15.415,0.574 2.58,-0.174 5.16,-0.471 7.717,-0.981 1.278,-0.251 2.552,-0.55 3.817,-0.916 1.284,-0.382 2.474,-0.759 3.824,-1.387 l -1.01,0.127 c 2.068,0.545 4.311,1.364 6.452,2.151 2.162,0.806 4.312,1.658 6.448,2.544 4.273,1.771 8.487,3.689 12.647,5.705 8.307,4.052 16.389,8.589 23.911,13.863 3.756,2.641 7.367,5.471 10.708,8.558 3.335,3.087 6.409,6.438 8.931,10.112 2.51,3.668 4.467,7.682 5.32,11.899 0.869,4.211 0.551,8.569 -0.859,12.639 -1.403,4.078 -3.792,7.852 -6.669,11.247 -0.711,0.854 -1.437,1.641 -2.258,2.514 -0.766,0.758 -1.569,1.617 -2.388,2.378 -1.622,1.579 -3.342,3.04 -5.091,4.455 -1.775,1.379 -3.604,2.679 -5.499,3.864 -1.905,1.165 -3.87,2.221 -5.892,3.136 -4.043,1.831 -8.33,3.061 -12.705,3.61 -4.376,0.55 -8.835,0.399 -13.204,-0.371 -4.372,-0.769 -8.656,-2.132 -12.753,-3.959 -4.103,-1.818 -8.029,-4.078 -11.739,-6.656 -1.855,-1.289 -3.659,-2.658 -5.396,-4.1 -1.717,-1.429 -3.456,-2.989 -4.919,-4.506 -0.954,-0.989 -2.529,-1.017 -3.518,-0.063 -0.674,0.651 -0.902,1.592 -0.675,2.437 l 0.004,0.013 c 0.479,1.77 0.866,3.815 1.149,5.764 0.284,1.976 0.48,3.967 0.575,5.961 0.192,3.986 0.028,7.984 -0.599,11.89 -0.628,3.903 -1.712,7.715 -3.325,11.277 -1.608,3.562 -3.75,6.862 -6.361,9.756 -2.605,2.901 -5.666,5.397 -9.03,7.451 -3.353,2.073 -7.007,3.698 -10.786,4.996 -3.775,1.276 -7.744,2.241 -11.663,2.913 -4.05,0.677 -8.076,1.126 -12.128,1.357 -8.079,0.466 -16.225,-0.086 -23.865,-2.346 -3.802,-1.147 -7.48,-2.692 -10.839,-4.758 -3.382,-2.029 -6.43,-4.578 -9.102,-7.479 -2.648,-2.926 -4.916,-6.211 -6.748,-9.748 -1.836,-3.537 -3.262,-7.301 -4.362,-11.17 -1.094,-3.872 -1.837,-7.859 -2.282,-11.883 -0.427,-4.001 -0.601,-8.148 -0.35,-12.056 l 0.004,-0.073 c 0.067,-1.038 -0.72,-1.933 -1.757,-1.999 -0.352,-0.022 -0.694,0.057 -0.985,0.207 -3.141,1.624 -6.478,2.826 -9.914,3.382 -3.43,0.572 -6.951,0.465 -10.337,-0.331 -3.388,-0.793 -6.63,-2.255 -9.597,-4.181 -2.971,-1.926 -5.681,-4.297 -8.104,-6.936 -1.211,-1.321 -2.351,-2.713 -3.401,-4.159 -0.506,-0.711 -1.065,-1.487 -1.426,-2.165 l -1.294,-2.413 c -1.673,-3.241 -3.204,-6.553 -4.488,-9.954 -2.531,-6.798 -4.081,-13.999 -3.791,-21.197 0.163,-3.59 0.836,-7.149 2.001,-10.549 1.179,-3.396 2.899,-6.604 5.002,-9.546 2.133,-2.923 4.619,-5.608 7.394,-7.976 2.757,-2.391 5.765,-4.5 8.912,-6.384 3.141,-1.897 6.443,-3.533 9.808,-5.022 3.376,-1.469 6.834,-2.758 10.341,-3.903 3.506,-1.152 7.065,-2.147 10.66,-3.002 C -7.296,1.232 -3.667,0.5 0,0 m 0,0 c -3.682,0.379 -7.339,0.992 -10.971,1.722 -3.631,0.738 -7.237,1.618 -10.799,2.66 -3.563,1.041 -7.072,2.271 -10.519,3.666 -3.437,1.419 -6.82,2.994 -10.062,4.845 -3.248,1.836 -6.374,3.914 -9.27,6.303 -2.913,2.366 -5.56,5.08 -7.863,8.079 -2.273,3.019 -4.172,6.354 -5.508,9.919 -1.324,3.568 -2.131,7.334 -2.397,11.132 -0.516,7.625 1.079,15.197 3.576,22.28 1.277,3.544 2.804,6.983 4.475,10.341 l 1.291,2.499 c 0.507,0.957 1.032,1.688 1.582,2.493 1.101,1.565 2.286,3.059 3.554,4.486 2.536,2.848 5.396,5.438 8.605,7.59 3.202,2.15 6.776,3.842 10.585,4.795 3.804,0.96 7.824,1.144 11.7,0.557 3.887,-0.568 7.616,-1.857 11.071,-3.576 l -2.738,-1.866 c -0.345,4.375 -0.213,8.556 0.167,12.813 0.405,4.233 1.122,8.447 2.224,12.581 1.094,4.135 2.605,8.182 4.563,12.032 1.956,3.85 4.409,7.475 7.309,10.725 2.922,3.227 6.288,6.082 10.008,8.355 3.699,2.312 7.73,4.04 11.858,5.319 8.296,2.521 16.963,3.146 25.436,2.727 4.239,-0.199 8.476,-0.687 12.615,-1.36 4.265,-0.719 8.388,-1.713 12.483,-3.079 4.07,-1.386 8.058,-3.141 11.776,-5.425 3.726,-2.26 7.177,-5.05 10.129,-8.32 2.959,-3.261 5.399,-7.001 7.216,-11.001 1.823,-4 3.036,-8.24 3.737,-12.527 0.696,-4.291 0.898,-8.634 0.669,-12.936 -0.109,-2.153 -0.325,-4.296 -0.637,-6.428 -0.327,-2.155 -0.702,-4.199 -1.313,-6.435 l -4.189,2.387 c 1.778,1.833 3.527,3.375 5.391,4.925 1.852,1.53 3.768,2.975 5.743,4.341 3.95,2.728 8.142,5.13 12.566,7.079 4.418,1.954 9.084,3.433 13.896,4.267 4.808,0.835 9.767,0.994 14.639,0.368 4.868,-0.626 9.643,-1.998 14.069,-4.057 2.215,-1.023 4.353,-2.194 6.413,-3.477 2.048,-1.302 4.008,-2.72 5.901,-4.216 1.862,-1.528 3.683,-3.104 5.389,-4.789 0.88,-0.834 1.664,-1.685 2.543,-2.576 0.769,-0.829 1.618,-1.762 2.391,-2.705 3.105,-3.727 5.782,-7.972 7.383,-12.739 0.786,-2.38 1.305,-4.874 1.456,-7.4 0.153,-2.526 -0.047,-5.071 -0.564,-7.53 -1.046,-4.933 -3.309,-9.442 -6.099,-13.416 -2.81,-3.978 -6.131,-7.489 -9.671,-10.683 -3.548,-3.194 -7.329,-6.074 -11.231,-8.743 -7.816,-5.329 -16.104,-9.835 -24.596,-13.842 -4.248,-2.003 -8.565,-3.85 -12.932,-5.575 -2.184,-0.86 -4.383,-1.686 -6.602,-2.468 -2.246,-0.774 -4.397,-1.535 -6.848,-2.136 -0.335,-0.082 -0.672,-0.038 -0.959,0.102 l -0.051,0.025 c -0.941,0.458 -2.16,0.894 -3.299,1.247 -1.164,0.359 -2.355,0.661 -3.558,0.92 -2.405,0.525 -4.866,0.852 -7.338,1.063 -4.952,0.411 -9.962,0.247 -14.936,-0.276 C 84.482,14.543 79.535,13.624 74.66,12.406 L 67.31,10.502 C 64.854,9.873 62.413,9.206 59.945,8.605 L 52.546,6.797 C 50.081,6.192 47.598,5.664 45.125,5.093 42.656,4.513 40.167,4.011 37.682,3.497 35.202,2.963 32.706,2.498 30.208,2.043 27.718,1.558 25.206,1.177 22.7,0.778 21.449,0.565 20.183,0.438 18.926,0.264 17.668,0.097 16.41,-0.066 15.144,-0.176 12.619,-0.436 10.085,-0.642 7.546,-0.687 6.278,-0.733 5.006,-0.697 3.739,-0.634 2.479,-0.533 1.192,-0.442 0,0" /></g><g
            transform="translate(202.8564,458.5747)"
            id="g186"><path
             id="path188"
             style="fill:#ffffff;fill-opacity:1;fill-rule:nonzero;stroke:none"
             d="M 0,0 C 0,0 -2.217,17.745 -20.24,25.509" /></g><g
            transform="translate(200.3516,458.2222)"
            id="g190"><path
             id="path192"
             style="fill:#6d6e70;fill-opacity:1;fill-rule:nonzero;stroke:none"
             d="m 0,0 c 0,0 -0.009,0.12 -0.026,0.343 -0.01,0.183 -0.045,0.497 -0.103,0.923 -0.12,0.836 -0.321,2.059 -0.716,3.506 -0.175,0.73 -0.433,1.502 -0.7,2.326 -0.28,0.818 -0.616,1.67 -0.983,2.544 -0.409,0.853 -0.782,1.772 -1.294,2.631 -0.243,0.439 -0.488,0.882 -0.734,1.327 l -0.84,1.278 c -0.532,0.882 -1.2,1.659 -1.818,2.465 -0.302,0.412 -0.634,0.79 -0.983,1.145 -0.342,0.365 -0.679,0.725 -1.011,1.08 -0.322,0.369 -0.673,0.693 -1.03,0.996 -0.352,0.313 -0.697,0.618 -1.032,0.915 -0.652,0.627 -1.359,1.098 -1.995,1.565 -0.646,0.447 -1.205,0.928 -1.769,1.234 -0.555,0.326 -1.04,0.61 -1.439,0.844 -0.803,0.47 -1.262,0.739 -1.262,0.739 0,0 0.493,-0.197 1.356,-0.543 0.434,-0.174 0.962,-0.386 1.566,-0.629 0.617,-0.225 1.241,-0.617 1.965,-0.974 0.714,-0.376 1.512,-0.753 2.27,-1.288 0.391,-0.254 0.792,-0.515 1.202,-0.782 0.417,-0.26 0.832,-0.542 1.221,-0.871 0.401,-0.317 0.808,-0.64 1.22,-0.966 0.423,-0.32 0.831,-0.664 1.211,-1.046 0.776,-0.746 1.611,-1.474 2.317,-2.321 l 1.103,-1.235 c 0.336,-0.436 0.67,-0.872 1.002,-1.303 C -0.61,13.052 -0.058,12.13 0.527,11.261 1.07,10.371 1.578,9.492 2.022,8.638 2.453,7.778 2.866,6.962 3.185,6.179 3.866,4.631 4.309,3.276 4.6,2.304 4.741,1.823 4.849,1.422 4.916,1.114 4.977,0.847 5.01,0.705 5.01,0.705 Z" /></g><g
            transform="translate(289.0898,472.2783)"
            id="g194"><path
             id="path196"
             style="fill:#ffffff;fill-opacity:1;fill-rule:nonzero;stroke:none"
             d="M 0,0 C 0,0.913 5.786,31.978 24.667,41.114" /></g><g
            transform="translate(286.3179,472.4634)"
            id="g198"><path
             id="path200"
             style="fill:#6d6e70;fill-opacity:1;fill-rule:nonzero;stroke:none"
             d="M 0,0 C 0,0 0.007,0.048 0.022,0.141 0.038,0.247 0.086,0.57 0.14,0.825 0.231,1.222 0.363,1.78 0.55,2.461 c 0.367,1.371 0.939,3.282 1.724,5.534 1.564,4.499 4.013,10.376 7.3,15.796 0.805,1.361 1.686,2.679 2.581,3.951 0.898,1.272 1.848,2.475 2.798,3.61 0.97,1.12 1.945,2.166 2.919,3.106 0.977,0.94 1.952,1.767 2.871,2.503 0.473,0.349 0.927,0.684 1.359,1.002 0.435,0.311 0.874,0.571 1.271,0.833 0.786,0.536 1.548,0.883 2.132,1.227 1.228,0.594 1.934,0.906 1.934,0.906 0,0 -0.672,-0.393 -1.813,-1.111 -0.541,-0.408 -1.245,-0.827 -1.957,-1.44 -0.36,-0.301 -0.756,-0.6 -1.147,-0.951 -0.383,-0.356 -0.787,-0.73 -1.209,-1.12 -0.81,-0.814 -1.66,-1.717 -2.497,-2.726 -0.835,-1.01 -1.658,-2.12 -2.464,-3.294 -0.788,-1.191 -1.565,-2.44 -2.286,-3.751 C 13.348,25.224 12.65,23.876 12.028,22.49 9.478,16.975 7.778,11.112 6.779,6.697 6.277,4.488 5.944,2.634 5.751,1.355 5.65,0.713 5.593,0.224 5.557,-0.093 5.548,-0.274 5.544,-0.37 5.544,-0.37 Z" /></g><g
            transform="translate(231.0381,462.9019)"
            id="g202"><path
             id="path204"
             style="fill:#ffffff;fill-opacity:1;fill-rule:nonzero;stroke:none"
             d="M 0,0 C -0.204,9.973 -4.99,42.756 -4.99,42.756" /></g><g
            transform="translate(227.3296,462.7134)"
            id="g206"><path
             id="path208"
             style="fill:#6d6e70;fill-opacity:1;fill-rule:nonzero;stroke:none"
             d="M 0,0 C 0,0 0.019,0.675 0.052,1.855 0.069,2.446 0.089,3.163 0.112,3.985 0.15,4.82 0.118,5.695 0.117,6.684 0.11,7.669 0.102,8.736 0.094,9.865 c 0.004,1.121 -0.053,2.359 -0.08,3.612 -0.064,2.518 -0.141,5.209 -0.256,7.902 -0.195,5.387 -0.467,10.78 -0.673,14.824 -0.219,4.045 -0.366,6.742 -0.366,6.742 L 0.235,36.363 C 1.13,32.409 2.324,27.137 3.443,21.839 4.019,19.194 4.56,16.538 5.059,14.042 5.306,12.787 5.568,11.605 5.771,10.422 5.983,9.249 6.184,8.139 6.369,7.115 6.546,6.093 6.743,5.13 6.845,4.327 6.963,3.512 7.066,2.801 7.15,2.216 7.32,1.045 7.417,0.377 7.417,0.377 Z" /></g><g
            transform="translate(195.7568,458.729)"
            id="g210"><path
             id="path212"
             style="fill:#d0d2d3;fill-opacity:1;fill-rule:nonzero;stroke:none"
             d="m 0,0 c 0,0 -0.008,0.118 -0.023,0.34 -0.007,0.177 -0.039,0.486 -0.092,0.91 -0.111,0.828 -0.301,2.045 -0.681,3.486 -0.168,0.728 -0.417,1.498 -0.676,2.32 -0.273,0.816 -0.6,1.666 -0.958,2.54 -0.4,0.852 -0.764,1.771 -1.266,2.63 -0.239,0.44 -0.48,0.883 -0.721,1.329 l -0.827,1.28 c -0.524,0.883 -1.182,1.663 -1.793,2.473 -0.297,0.413 -0.626,0.792 -0.972,1.149 -0.337,0.367 -0.671,0.73 -0.999,1.086 -0.319,0.371 -0.668,0.697 -1.022,1.003 -0.349,0.314 -0.691,0.622 -1.023,0.922 -0.647,0.63 -1.349,1.106 -1.981,1.578 -0.642,0.452 -1.197,0.936 -1.758,1.247 -0.554,0.33 -1.036,0.618 -1.434,0.855 -0.8,0.477 -1.257,0.749 -1.257,0.749 0,0 0.495,-0.194 1.361,-0.533 0.436,-0.172 0.965,-0.38 1.573,-0.618 0.619,-0.222 1.246,-0.609 1.975,-0.961 0.717,-0.371 1.52,-0.743 2.283,-1.275 0.394,-0.251 0.798,-0.51 1.21,-0.774 0.42,-0.259 0.839,-0.538 1.231,-0.865 0.405,-0.315 0.815,-0.636 1.231,-0.961 0.427,-0.318 0.839,-0.66 1.223,-1.04 0.783,-0.744 1.627,-1.47 2.341,-2.313 l 1.118,-1.234 c 0.34,-0.436 0.679,-0.871 1.015,-1.302 C -0.221,13.17 0.34,12.249 0.935,11.378 1.486,10.487 2.003,9.607 2.455,8.752 2.894,7.89 3.315,7.072 3.641,6.286 4.337,4.733 4.792,3.372 5.092,2.392 5.237,1.909 5.348,1.503 5.418,1.189 5.482,0.92 5.516,0.776 5.516,0.776 Z" /></g><g
            transform="translate(262.3823,472.1797)"
            id="g214"><path
             id="path216"
             style="fill:#ffffff;fill-opacity:1;fill-rule:nonzero;stroke:none"
             d="M 0,0 C 0,0 -6.587,16.626 5.483,32.1" /></g><g
            transform="translate(260.0166,471.2847)"
            id="g218"><path
             id="path220"
             style="fill:#6d6e70;fill-opacity:1;fill-rule:nonzero;stroke:none"
             d="m 0,0 c 0,0 -0.04,0.141 -0.115,0.404 -0.089,0.303 -0.187,0.706 -0.295,1.195 -0.212,0.993 -0.475,2.394 -0.622,4.079 -0.096,0.839 -0.127,1.754 -0.163,2.715 -0.021,0.961 0.002,1.976 0.05,3.018 0.095,1.044 0.137,2.117 0.334,3.196 0.083,0.538 0.167,1.08 0.252,1.625 l 0.373,1.614 c 0.212,1.08 0.595,2.121 0.916,3.148 0.15,0.517 0.342,1.016 0.559,1.499 0.205,0.485 0.407,0.964 0.606,1.435 0.182,0.475 0.411,0.922 0.651,1.35 0.231,0.431 0.458,0.853 0.678,1.264 0.407,0.833 0.926,1.548 1.371,2.221 0.464,0.66 0.822,1.304 1.254,1.799 0.414,0.503 0.775,0.942 1.071,1.304 0.591,0.718 0.929,1.129 0.929,1.129 0,0 -0.274,-0.457 -0.752,-1.256 C 6.86,31.342 6.571,30.86 6.241,30.308 5.894,29.768 5.635,29.078 5.283,28.375 4.951,27.66 4.557,26.907 4.287,26.044 4.136,25.622 3.98,25.188 3.822,24.746 3.655,24.307 3.502,23.854 3.397,23.376 3.277,22.906 3.154,22.427 3.031,21.943 2.895,21.464 2.785,20.973 2.719,20.467 2.564,19.462 2.353,18.46 2.31,17.431 L 2.188,15.906 C 2.186,15.398 2.184,14.892 2.182,14.389 2.146,13.39 2.261,12.405 2.313,11.461 2.412,10.517 2.527,9.608 2.674,8.757 2.835,7.906 2.98,7.105 3.179,6.381 3.528,4.922 3.939,3.752 4.236,2.962 4.39,2.561 4.51,2.269 4.59,2.104 4.682,1.899 4.731,1.79 4.731,1.79 Z" /></g><g
            transform="translate(263.3237,473.7583)"
            id="g222"><path
             id="path224"
             style="fill:#d0d2d3;fill-opacity:1;fill-rule:nonzero;stroke:none"
             d="m 0,0 c 0,0 -0.039,0.142 -0.113,0.409 -0.09,0.309 -0.187,0.718 -0.292,1.212 -0.208,1.003 -0.464,2.415 -0.6,4.112 -0.092,0.845 -0.117,1.765 -0.146,2.732 -0.015,0.967 0.015,1.987 0.07,3.034 0.103,1.048 0.152,2.126 0.358,3.209 0.087,0.54 0.176,1.084 0.265,1.63 l 0.386,1.619 c 0.22,1.084 0.611,2.126 0.941,3.154 0.154,0.518 0.35,1.016 0.571,1.5 0.209,0.485 0.415,0.964 0.618,1.434 0.187,0.476 0.419,0.922 0.663,1.351 0.235,0.43 0.465,0.851 0.688,1.261 0.415,0.832 0.94,1.545 1.39,2.216 0.47,0.658 0.833,1.299 1.269,1.792 0.418,0.501 0.783,0.938 1.083,1.297 0.596,0.714 0.937,1.122 0.937,1.122 0,0 -0.27,-0.459 -0.743,-1.261 C 7.111,31.424 6.826,30.94 6.5,30.384 6.157,29.842 5.903,29.15 5.557,28.445 5.23,27.728 4.843,26.973 4.58,26.109 4.432,25.687 4.28,25.252 4.125,24.809 3.962,24.37 3.813,23.917 3.712,23.438 3.596,22.968 3.478,22.49 3.358,22.005 3.227,21.526 3.121,21.036 3.059,20.53 2.913,19.526 2.709,18.527 2.675,17.5 L 2.566,15.98 C 2.568,15.474 2.57,14.969 2.573,14.469 2.545,13.474 2.667,12.493 2.727,11.554 2.833,10.615 2.955,9.712 3.108,8.866 3.276,8.021 3.427,7.226 3.63,6.507 3.99,5.06 4.409,3.902 4.709,3.122 4.866,2.726 4.988,2.439 5.066,2.281 5.16,2.079 5.21,1.972 5.21,1.972 Z" /></g><g
            transform="translate(282.5112,474.0918)"
            id="g226"><path
             id="path228"
             style="fill:#d0d2d3;fill-opacity:1;fill-rule:nonzero;stroke:none"
             d="m 0,0 c 0,0 0.007,0.048 0.022,0.141 0.016,0.106 0.064,0.429 0.118,0.684 0.091,0.398 0.223,0.956 0.41,1.637 0.368,1.371 0.94,3.282 1.726,5.534 1.564,4.5 4.014,10.376 7.302,15.796 0.805,1.361 1.686,2.68 2.582,3.952 0.898,1.271 1.849,2.474 2.798,3.609 0.97,1.12 1.946,2.166 2.92,3.106 0.977,0.94 1.953,1.767 2.871,2.503 0.474,0.349 0.928,0.684 1.359,1.001 0.436,0.311 0.874,0.572 1.271,0.834 0.788,0.535 1.549,0.882 2.133,1.227 1.228,0.593 1.935,0.905 1.935,0.905 0,0 -0.673,-0.393 -1.814,-1.112 -0.541,-0.407 -1.244,-0.827 -1.957,-1.44 -0.359,-0.3 -0.756,-0.6 -1.146,-0.951 -0.384,-0.356 -0.787,-0.73 -1.208,-1.12 C 20.511,35.492 19.661,34.588 18.824,33.58 17.989,32.57 17.167,31.46 16.36,30.286 15.574,29.095 14.796,27.845 14.076,26.534 13.357,25.222 12.66,23.874 12.038,22.488 9.489,16.973 7.79,11.11 6.792,6.695 6.29,4.486 5.957,2.632 5.765,1.354 5.664,0.711 5.606,0.222 5.57,-0.095 5.562,-0.275 5.558,-0.371 5.558,-0.371 Z" /></g><g
            transform="translate(223.9146,463.3032)"
            id="g230"><path
             id="path232"
             style="fill:#d0d2d3;fill-opacity:1;fill-rule:nonzero;stroke:none"
             d="m 0,0 c 0,0 0.004,0.674 0.012,1.853 0.004,0.59 0.009,1.306 0.014,2.127 0.021,0.832 -0.032,1.718 -0.054,2.711 -0.03,0.99 -0.062,2.062 -0.096,3.196 -0.022,1.13 -0.104,2.36 -0.159,3.613 -0.118,2.516 -0.253,5.202 -0.425,7.889 -0.311,5.376 -0.698,10.754 -0.989,14.787 -0.307,4.033 -0.511,6.722 -0.511,6.722 0,0 0.549,-2.641 1.373,-6.602 0.809,-3.965 1.887,-9.253 2.891,-14.562 0.518,-2.651 1.001,-5.311 1.445,-7.81 C 3.721,12.669 3.957,11.48 4.134,10.305 4.321,9.137 4.498,8.033 4.66,7.014 4.816,5.996 4.992,5.044 5.076,4.236 5.176,3.42 5.264,2.709 5.336,2.124 5.48,0.952 5.562,0.282 5.562,0.282 Z" /></g><g
            transform="translate(123.98,528.1675)"
            id="g234"><path
             id="path236"
             style="fill:#d0d2d3;fill-opacity:1;fill-rule:nonzero;stroke:none"
             d="m 0,0 c -0.128,2.424 -33.65,-44.777 40.436,-64.316 0,0 -9.77,15.062 0.814,19.539 0,0 -38.672,-4.071 -41.25,44.777" /></g><g
            transform="translate(248.2705,604.6953)"
            id="g238"><path
             id="path240"
             style="fill:#d0d2d3;fill-opacity:1;fill-rule:nonzero;stroke:none"
             d="m 0,0 c 0,0 -73.271,27.68 -72.729,-47.762 0,0 3.257,2.715 13.026,0.543 0,0 -11.941,60.246 59.703,47.219" /></g><g
            transform="translate(357.9072,551.5059)"
            id="g242"><path
             id="path244"
             style="fill:#d0d2d3;fill-opacity:1;fill-rule:nonzero;stroke:none"
             d="m 0,0 c 0,0 -30.395,37.45 -71.101,-3.799 0,0 2.714,-7.598 4.342,-11.941 0,0 21.709,47.22 66.759,15.74" /></g><g
            transform="translate(179.3716,457.3525)"
            id="g246"><path
             id="path248"
             style="fill:#ffffff;fill-opacity:1;fill-rule:nonzero;stroke:none"
             d="m 0,0 -4.885,-62.688 c 0,0 21.113,5.033 52.919,-5.699 29.006,-9.786 74.086,8.956 74.086,8.956 0,0 2.849,20.354 0.407,39.078 -2.443,18.725 -4.071,34.601 -4.071,34.601 0,0 -25.645,5.698 -59.432,-4.478 C 25.238,-0.407 9.363,-1.221 0,0" /></g><g
            transform="translate(179.3716,457.3525)"
            id="g250"><path
             id="path252"
             style="fill:#6d6e70;fill-opacity:1;fill-rule:nonzero;stroke:none"
             d="m 0,0 c 4.999,-0.484 10.014,-0.168 14.965,0.438 1.24,0.146 2.476,0.313 3.709,0.517 1.235,0.178 2.464,0.399 3.692,0.626 1.23,0.211 2.453,0.464 3.675,0.719 1.224,0.245 2.444,0.508 3.661,0.788 2.44,0.527 4.862,1.145 7.285,1.747 2.415,0.643 4.832,1.269 7.232,1.97 2.408,0.669 4.794,1.402 7.187,2.105 2.391,0.711 4.786,1.484 7.178,2.223 2.397,0.748 4.839,1.479 7.287,2.115 2.449,0.652 4.92,1.225 7.402,1.746 4.968,1.028 9.999,1.762 15.057,2.246 5.058,0.479 10.148,0.683 15.244,0.591 2.548,-0.048 5.098,-0.175 7.646,-0.406 2.57,-0.238 5.047,-0.523 7.71,-1.043 0.924,-0.18 1.588,-0.937 1.692,-1.823 l 0.01,-0.088 1.064,-9.153 c 0.17,-1.524 0.387,-3.057 0.577,-4.586 l 0.591,-4.587 1.182,-9.177 0.57,-4.591 0.554,-4.622 c 0.204,-1.567 0.296,-3.134 0.436,-4.702 0.095,-1.568 0.199,-3.136 0.248,-4.702 0.054,-1.567 0.1,-3.134 0.1,-4.699 0.027,-1.566 -0.013,-3.128 -0.025,-4.693 -0.074,-3.125 -0.212,-6.245 -0.428,-9.362 -0.109,-1.559 -0.234,-3.116 -0.382,-4.672 -0.146,-1.566 -0.309,-3.098 -0.528,-4.701 l -0.002,-0.019 c -0.123,-0.901 -0.725,-1.622 -1.511,-1.94 -2.614,-1.051 -5.156,-1.961 -7.758,-2.85 -2.592,-0.878 -5.199,-1.707 -7.825,-2.475 -5.25,-1.541 -10.563,-2.876 -15.945,-3.943 -2.69,-0.535 -5.396,-1.007 -8.12,-1.386 -2.718,-0.413 -5.466,-0.661 -8.216,-0.88 -2.756,-0.16 -5.519,-0.294 -8.296,-0.229 -2.772,0.024 -5.555,0.216 -8.328,0.552 -2.78,0.325 -5.513,0.882 -8.329,1.613 l -1.943,0.596 -1.981,0.627 -3.8,1.224 c -1.261,0.433 -2.557,0.734 -3.833,1.114 -1.282,0.354 -2.556,0.746 -3.856,1.028 l -3.884,0.921 -3.916,0.761 c -1.302,0.282 -2.625,0.428 -3.937,0.647 -1.312,0.222 -2.632,0.373 -3.954,0.517 l -1.982,0.226 -1.987,0.151 -1.988,0.151 -1.99,0.079 c -2.654,0.118 -5.309,0.103 -7.957,10e-4 -2.624,-0.121 -5.334,-0.361 -7.796,-0.828 l -0.095,-0.018 c -0.786,-0.148 -1.545,0.368 -1.694,1.155 -0.026,0.136 -0.031,0.277 -0.019,0.408 l 1.495,15.65 1.554,15.646 1.611,15.642 z m 0,0 -0.751,-15.708 -0.832,-15.703 -0.888,-15.697 -0.947,-15.694 -1.808,1.545 c 2.829,0.637 5.511,0.947 8.276,1.176 2.746,0.192 5.499,0.326 8.246,0.26 l 2.061,-0.032 2.057,-0.105 2.058,-0.107 2.05,-0.183 c 1.368,-0.116 2.736,-0.239 4.094,-0.435 1.358,-0.191 2.729,-0.311 4.077,-0.566 l 4.058,-0.688 4.026,-0.851 c 1.348,-0.26 2.669,-0.629 3.999,-0.962 1.324,-0.356 2.671,-0.638 3.974,-1.067 l 3.933,-1.204 1.891,-0.568 1.94,-0.564 c 2.424,-0.58 5.001,-1.083 7.596,-1.344 2.594,-0.277 5.214,-0.42 7.845,-0.406 2.628,-0.026 5.266,0.142 7.9,0.333 2.633,0.248 5.266,0.531 7.891,0.931 2.626,0.378 5.244,0.847 7.851,1.378 5.216,1.061 10.387,2.386 15.5,3.913 2.557,0.761 5.098,1.581 7.619,2.45 2.508,0.868 5.05,1.795 7.445,2.772 l -1.513,-1.959 c 0.184,1.453 0.362,2.987 0.508,4.492 0.152,1.512 0.281,3.03 0.395,4.547 0.225,3.035 0.374,6.077 0.461,9.118 0.018,1.52 0.066,3.041 0.046,4.559 0.007,1.519 -0.03,3.036 -0.074,4.551 -0.04,1.516 -0.134,3.026 -0.217,4.538 -0.128,1.504 -0.209,3.017 -0.397,4.51 l -2.117,18.353 -0.523,4.597 c -0.169,1.534 -0.362,3.058 -0.511,4.602 l -0.939,9.242 1.701,-1.911 c -2.251,0.474 -4.755,0.814 -7.173,1.068 -2.443,0.249 -4.899,0.433 -7.362,0.541 C 98.52,13.93 93.57,13.853 88.637,13.506 86.171,13.327 83.706,13.102 81.25,12.787 78.792,12.492 76.346,12.103 73.904,11.685 71.464,11.257 69.031,10.78 66.614,10.222 64.189,9.678 61.804,9.051 59.391,8.386 56.97,7.726 54.567,7.039 52.13,6.402 49.692,5.765 47.255,5.127 44.804,4.562 42.361,3.961 39.899,3.434 37.443,2.892 34.976,2.39 32.514,1.873 30.031,1.447 28.794,1.215 27.553,1.004 26.306,0.826 25.062,0.632 23.818,0.442 22.567,0.293 21.318,0.128 20.07,-0.029 18.815,-0.145 17.563,-0.285 16.309,-0.388 15.052,-0.471 12.541,-0.661 10.019,-0.72 7.503,-0.656 4.989,-0.6 2.476,-0.403 0,0" /></g><g
            transform="translate(183.8237,453.9106)"
            id="g254"><path
             id="path256"
             style="fill:#d0d2d3;fill-opacity:1;fill-rule:nonzero;stroke:none"
             d="m 0,0 -2.312,-53.157 c 0,0 12.212,6.92 51.291,-5.291 C 18.042,-40.945 -0.478,-42.959 0,0" /></g></g></g></g></svg>
